<svg width="72" height="66" viewBox="0 0 72 66" fill="none" xmlns="http://www.w3.org/2000/svg">
<rect x="16" y="16" width="42" height="37" rx="18.5" fill="black"/>
<rect width="29.3943" height="29.3943" rx="5" transform="matrix(0.866014 -0.50002 0.866014 0.50002 10 15.6977)" fill="#97D5F1"/>
<rect width="29.3943" height="29.3943" rx="5" transform="matrix(0.866014 -0.50002 0.866014 0.50002 10 15.6977)" fill="#020607"/>
<rect width="27.4958" height="27.4958" rx="5" transform="matrix(0.135553 -0.99077 0.790255 -0.612778 34.0008 58.2874)" fill="#97D5F1"/>
<rect width="27.4958" height="27.4958" rx="5" transform="matrix(0.135553 -0.99077 0.790255 -0.612778 37.0008 60.2874)" fill="#040500"/>
<rect width="27.4958" height="27.4958" rx="5" transform="matrix(0.790255 0.612778 0.135553 0.99077 12.0008 14.1966)" fill="#97D5F1"/>
<rect width="27.4958" height="27.4958" rx="5" transform="matrix(0.790255 0.612778 0.135553 0.99077 9.00078 16.1966)" fill="black"/>
<rect width="29.3943" height="29.3943" rx="5" transform="matrix(0.866014 -0.50002 0.866014 0.50002 10 14.6977)" fill="url(#paint0_linear_4_86)"/>
<rect width="27.4958" height="27.4958" rx="5" transform="matrix(0.135553 -0.99077 0.790255 -0.612778 36.0008 58.2874)" fill="url(#paint1_linear_4_86)"/>
<rect width="27.4958" height="27.4958" rx="5" transform="matrix(0.790255 0.612778 0.135553 0.99077 10.0008 14.1966)" fill="url(#paint2_linear_4_86)"/>
<defs>
<linearGradient id="paint0_linear_4_86" x1="20.7849" y1="7.99969" x2="7.65447" y2="23.383" gradientUnits="userSpaceOnUse">
<stop stop-color="#DFA039"/>
<stop offset="1" stop-color="#C33C26"/>
</linearGradient>
<linearGradient id="paint1_linear_4_86" x1="27.4958" y1="13.7479" x2="0" y2="13.7479" gradientUnits="userSpaceOnUse">
<stop stop-color="#DFA039"/>
<stop offset="1" stop-color="#C33B25"/>
</linearGradient>
<linearGradient id="paint2_linear_4_86" x1="0" y1="13.7479" x2="27.4958" y2="13.7479" gradientUnits="userSpaceOnUse">
<stop stop-color="#DFA039"/>
<stop offset="1" stop-color="#C33C26"/>
</linearGradient>
</defs>
</svg>
